G04 start of page 10 for group -4015 idx -4015 *
G04 Title: SFT-HW-0022, toppaste *
G04 Creator: pcb 20110918 *
G04 CreationDate: Thu 04 Dec 2014 01:03:43 AM GMT UTC *
G04 For: tgack *
G04 Format: Gerber/RS-274X *
G04 PCB-Dimensions: 150000 100000 *
G04 PCB-Coordinate-Origin: lower left *
%MOIN*%
%FSLAX25Y25*%
%LNTOPPASTE*%
%ADD62R,0.0945X0.0945*%
%ADD61R,0.0200X0.0200*%
%ADD60R,0.0340X0.0340*%
%ADD59R,0.0669X0.0669*%
%ADD58R,0.0358X0.0358*%
%ADD57R,0.0512X0.0512*%
G54D57*X61543Y15393D02*Y14607D01*
X54457Y15393D02*Y14607D01*
G54D58*X66437Y7610D02*Y6390D01*
X53563Y7610D02*Y6390D01*
G54D57*X103457Y42393D02*Y41607D01*
X110543Y42393D02*Y41607D01*
X103457Y50393D02*Y49607D01*
X110543Y50393D02*Y49607D01*
G54D59*X108016Y93508D02*X109984D01*
X108016Y69492D02*X109984D01*
G54D57*X91043Y74393D02*Y73607D01*
X83957Y74393D02*Y73607D01*
X64905Y93181D02*Y90819D01*
X53095Y93181D02*Y90819D01*
X64905Y83681D02*Y81319D01*
X53095Y83681D02*Y81319D01*
G54D60*X39700Y7000D02*X40300D01*
X39700Y14800D02*X40300D01*
X31500Y10900D02*X32100D01*
G54D61*X57000Y67000D02*X63500D01*
X57000Y62000D02*X63500D01*
X57000Y57000D02*X63500D01*
X57000Y52000D02*X63500D01*
X77500D02*X84000D01*
X77500Y57000D02*X84000D01*
X77500Y62000D02*X84000D01*
X77500Y67000D02*X84000D01*
G54D62*X70500Y63043D02*Y55957D01*
G54D57*X77957Y41893D02*Y41107D01*
X85043Y41893D02*Y41107D01*
X49043Y34893D02*Y34107D01*
X41957Y34893D02*Y34107D01*
X64043Y41893D02*Y41107D01*
X56957Y41893D02*Y41107D01*
X49043Y41893D02*Y41107D01*
X41957Y41893D02*Y41107D01*
X40457Y55393D02*Y54607D01*
X47543Y55393D02*Y54607D01*
M02*
