G04 start of page 3 for group 5 idx 5 *
G04 Title: SFT-HW-0022, bottom *
G04 Creator: pcb 20110918 *
G04 CreationDate: Thu 04 Dec 2014 01:03:43 AM GMT UTC *
G04 For: tgack *
G04 Format: Gerber/RS-274X *
G04 PCB-Dimensions: 150000 100000 *
G04 PCB-Coordinate-Origin: lower left *
%MOIN*%
%FSLAX25Y25*%
%LNBOTTOM*%
%ADD35C,0.0472*%
%ADD34C,0.1200*%
%ADD33C,0.0350*%
%ADD32C,0.0120*%
%ADD31C,0.0600*%
%ADD30C,0.0260*%
%ADD29C,0.0945*%
%ADD28C,0.0080*%
%ADD27C,0.0001*%
G54D27*G36*
X139633Y58190D02*X139648Y58125D01*
X139705Y57704D01*
X139724Y57280D01*
X139705Y56856D01*
X139648Y56435D01*
X139633Y56370D01*
Y58190D01*
G37*
G36*
Y75000D02*X147500D01*
Y25000D01*
X139633D01*
Y37983D01*
X139850Y37983D01*
X139972Y38012D01*
X140089Y38060D01*
X140196Y38126D01*
X140292Y38208D01*
X140374Y38304D01*
X140440Y38411D01*
X140488Y38528D01*
X140517Y38650D01*
X140524Y38776D01*
X140517Y48350D01*
X140488Y48472D01*
X140440Y48589D01*
X140374Y48696D01*
X140292Y48792D01*
X140196Y48874D01*
X140089Y48940D01*
X139972Y48988D01*
X139850Y49017D01*
X139724Y49024D01*
X139633Y49024D01*
Y54275D01*
X139745Y54440D01*
X139981Y54877D01*
X140176Y55334D01*
X140330Y55807D01*
X140441Y56291D01*
X140508Y56784D01*
X140530Y57280D01*
X140508Y57776D01*
X140441Y58269D01*
X140330Y58753D01*
X140176Y59226D01*
X139981Y59683D01*
X139745Y60120D01*
X139633Y60289D01*
Y75000D01*
G37*
G36*
Y25000D02*X135000D01*
Y37979D01*
X139633Y37983D01*
Y25000D01*
G37*
G36*
X135000Y75000D02*X139633D01*
Y60289D01*
X139471Y60535D01*
X139430Y60583D01*
X139381Y60625D01*
X139327Y60658D01*
X139268Y60682D01*
X139206Y60697D01*
X139142Y60702D01*
X139079Y60697D01*
X139017Y60682D01*
X138958Y60658D01*
X138904Y60624D01*
X138856Y60583D01*
X138814Y60534D01*
X138781Y60480D01*
X138757Y60421D01*
X138742Y60359D01*
X138737Y60296D01*
X138742Y60232D01*
X138757Y60170D01*
X138781Y60111D01*
X138816Y60058D01*
X139054Y59707D01*
X139255Y59333D01*
X139422Y58943D01*
X139554Y58539D01*
X139633Y58190D01*
Y56370D01*
X139554Y56021D01*
X139422Y55617D01*
X139255Y55227D01*
X139054Y54853D01*
X138820Y54499D01*
X138786Y54446D01*
X138761Y54388D01*
X138747Y54327D01*
X138742Y54264D01*
X138747Y54202D01*
X138761Y54140D01*
X138785Y54082D01*
X138818Y54028D01*
X138859Y53980D01*
X138907Y53940D01*
X138960Y53907D01*
X139019Y53882D01*
X139080Y53868D01*
X139143Y53863D01*
X139205Y53868D01*
X139267Y53882D01*
X139325Y53906D01*
X139378Y53939D01*
X139426Y53980D01*
X139466Y54028D01*
X139633Y54275D01*
Y49024D01*
X135000Y49021D01*
Y51750D01*
X135496Y51772D01*
X135989Y51839D01*
X136473Y51950D01*
X136946Y52104D01*
X137403Y52299D01*
X137840Y52535D01*
X138255Y52809D01*
X138303Y52850D01*
X138345Y52899D01*
X138378Y52953D01*
X138402Y53012D01*
X138417Y53074D01*
X138422Y53138D01*
X138417Y53201D01*
X138402Y53263D01*
X138378Y53322D01*
X138344Y53376D01*
X138303Y53424D01*
X138254Y53466D01*
X138200Y53499D01*
X138141Y53523D01*
X138079Y53538D01*
X138016Y53543D01*
X137952Y53538D01*
X137890Y53523D01*
X137831Y53499D01*
X137778Y53464D01*
X137427Y53226D01*
X137053Y53025D01*
X136663Y52858D01*
X136259Y52726D01*
X135845Y52632D01*
X135424Y52575D01*
X135000Y52555D01*
Y62004D01*
X135424Y61985D01*
X135845Y61928D01*
X136259Y61834D01*
X136663Y61702D01*
X137053Y61535D01*
X137427Y61334D01*
X137781Y61100D01*
X137834Y61066D01*
X137892Y61041D01*
X137953Y61027D01*
X138016Y61022D01*
X138078Y61027D01*
X138140Y61041D01*
X138198Y61065D01*
X138252Y61098D01*
X138300Y61139D01*
X138340Y61187D01*
X138373Y61240D01*
X138398Y61299D01*
X138412Y61360D01*
X138417Y61423D01*
X138412Y61485D01*
X138398Y61547D01*
X138374Y61605D01*
X138341Y61658D01*
X138300Y61706D01*
X138252Y61746D01*
X137840Y62025D01*
X137403Y62261D01*
X136946Y62456D01*
X136473Y62610D01*
X135989Y62721D01*
X135496Y62788D01*
X135000Y62810D01*
Y75000D01*
G37*
G36*
X130367Y37976D02*X135000Y37979D01*
Y25000D01*
X130367D01*
Y37976D01*
G37*
G36*
Y75000D02*X135000D01*
Y62810D01*
X134504Y62788D01*
X134011Y62721D01*
X133527Y62610D01*
X133054Y62456D01*
X132597Y62261D01*
X132160Y62025D01*
X131745Y61751D01*
X131697Y61710D01*
X131655Y61661D01*
X131622Y61607D01*
X131598Y61548D01*
X131583Y61486D01*
X131578Y61422D01*
X131583Y61359D01*
X131598Y61297D01*
X131622Y61238D01*
X131656Y61184D01*
X131697Y61136D01*
X131746Y61094D01*
X131800Y61061D01*
X131859Y61037D01*
X131921Y61022D01*
X131984Y61017D01*
X132048Y61022D01*
X132110Y61037D01*
X132169Y61061D01*
X132222Y61096D01*
X132573Y61334D01*
X132947Y61535D01*
X133337Y61702D01*
X133741Y61834D01*
X134155Y61928D01*
X134576Y61985D01*
X135000Y62004D01*
Y52555D01*
X134576Y52575D01*
X134155Y52632D01*
X133741Y52726D01*
X133337Y52858D01*
X132947Y53025D01*
X132573Y53226D01*
X132219Y53460D01*
X132166Y53494D01*
X132108Y53519D01*
X132047Y53533D01*
X131984Y53538D01*
X131922Y53533D01*
X131860Y53519D01*
X131802Y53495D01*
X131748Y53462D01*
X131700Y53421D01*
X131660Y53373D01*
X131627Y53320D01*
X131602Y53261D01*
X131588Y53200D01*
X131583Y53137D01*
X131588Y53075D01*
X131602Y53013D01*
X131626Y52955D01*
X131659Y52902D01*
X131700Y52854D01*
X131748Y52814D01*
X132160Y52535D01*
X132597Y52299D01*
X133054Y52104D01*
X133527Y51950D01*
X134011Y51839D01*
X134504Y51772D01*
X135000Y51750D01*
Y49021D01*
X130367Y49017D01*
Y54271D01*
X130529Y54025D01*
X130570Y53977D01*
X130619Y53935D01*
X130673Y53902D01*
X130732Y53878D01*
X130794Y53863D01*
X130858Y53858D01*
X130921Y53863D01*
X130983Y53878D01*
X131042Y53902D01*
X131096Y53936D01*
X131144Y53977D01*
X131186Y54026D01*
X131219Y54080D01*
X131243Y54139D01*
X131258Y54201D01*
X131263Y54264D01*
X131258Y54328D01*
X131243Y54390D01*
X131219Y54449D01*
X131184Y54502D01*
X130946Y54853D01*
X130745Y55227D01*
X130578Y55617D01*
X130446Y56021D01*
X130367Y56370D01*
Y58190D01*
X130446Y58539D01*
X130578Y58943D01*
X130745Y59333D01*
X130946Y59707D01*
X131180Y60061D01*
X131214Y60114D01*
X131239Y60172D01*
X131253Y60233D01*
X131258Y60296D01*
X131253Y60358D01*
X131239Y60420D01*
X131215Y60478D01*
X131182Y60532D01*
X131141Y60580D01*
X131093Y60620D01*
X131040Y60653D01*
X130981Y60678D01*
X130920Y60692D01*
X130857Y60697D01*
X130795Y60692D01*
X130733Y60678D01*
X130675Y60654D01*
X130622Y60621D01*
X130574Y60580D01*
X130534Y60532D01*
X130367Y60285D01*
Y75000D01*
G37*
G36*
Y56370D02*X130352Y56435D01*
X130295Y56856D01*
X130276Y57280D01*
X130295Y57704D01*
X130352Y58125D01*
X130367Y58190D01*
Y56370D01*
G37*
G36*
X81284Y97500D02*X125000D01*
Y75000D01*
X130367D01*
Y60285D01*
X130255Y60120D01*
X130019Y59683D01*
X129824Y59226D01*
X129670Y58753D01*
X129559Y58269D01*
X129492Y57776D01*
X129470Y57280D01*
X129492Y56784D01*
X129559Y56291D01*
X129670Y55807D01*
X129824Y55334D01*
X130019Y54877D01*
X130255Y54440D01*
X130367Y54271D01*
Y49017D01*
X130150Y49017D01*
X130028Y48988D01*
X129911Y48940D01*
X129804Y48874D01*
X129708Y48792D01*
X129626Y48696D01*
X129560Y48589D01*
X129512Y48472D01*
X129483Y48350D01*
X129476Y48224D01*
X129483Y38650D01*
X129512Y38528D01*
X129560Y38411D01*
X129626Y38304D01*
X129708Y38208D01*
X129804Y38126D01*
X129911Y38060D01*
X130028Y38012D01*
X130150Y37983D01*
X130276Y37976D01*
X130367Y37976D01*
Y25000D01*
X125000D01*
Y2000D01*
X81284D01*
Y4869D01*
X81287Y4870D01*
X81355Y4909D01*
X81416Y4958D01*
X81469Y5017D01*
X81511Y5083D01*
X81674Y5408D01*
X81803Y5748D01*
X81901Y6098D01*
X81967Y6456D01*
X82000Y6818D01*
Y7182D01*
X81967Y7544D01*
X81901Y7902D01*
X81803Y8252D01*
X81674Y8592D01*
X81515Y8919D01*
X81472Y8985D01*
X81419Y9044D01*
X81357Y9094D01*
X81288Y9133D01*
X81284Y9135D01*
Y97500D01*
G37*
G36*
X78002D02*X81284D01*
Y9135D01*
X81214Y9161D01*
X81137Y9177D01*
X81058Y9181D01*
X80979Y9173D01*
X80903Y9152D01*
X80830Y9120D01*
X80764Y9077D01*
X80705Y9024D01*
X80656Y8962D01*
X80616Y8893D01*
X80588Y8819D01*
X80572Y8742D01*
X80568Y8663D01*
X80576Y8584D01*
X80597Y8507D01*
X80630Y8436D01*
X80753Y8193D01*
X80850Y7938D01*
X80923Y7676D01*
X80972Y7408D01*
X80997Y7136D01*
Y6864D01*
X80972Y6592D01*
X80923Y6324D01*
X80850Y6062D01*
X80753Y5807D01*
X80633Y5563D01*
X80600Y5491D01*
X80579Y5416D01*
X80571Y5337D01*
X80575Y5259D01*
X80591Y5182D01*
X80619Y5108D01*
X80658Y5040D01*
X80707Y4979D01*
X80766Y4926D01*
X80832Y4883D01*
X80904Y4851D01*
X80980Y4830D01*
X81058Y4822D01*
X81136Y4826D01*
X81213Y4842D01*
X81284Y4869D01*
Y2000D01*
X78002D01*
Y3000D01*
X78182D01*
X78544Y3033D01*
X78902Y3099D01*
X79252Y3197D01*
X79592Y3326D01*
X79919Y3485D01*
X79985Y3528D01*
X80044Y3581D01*
X80094Y3643D01*
X80133Y3712D01*
X80161Y3786D01*
X80177Y3863D01*
X80181Y3942D01*
X80173Y4021D01*
X80152Y4097D01*
X80120Y4170D01*
X80077Y4236D01*
X80024Y4295D01*
X79962Y4344D01*
X79893Y4384D01*
X79819Y4412D01*
X79742Y4428D01*
X79663Y4432D01*
X79584Y4424D01*
X79507Y4403D01*
X79436Y4370D01*
X79193Y4247D01*
X78938Y4150D01*
X78676Y4077D01*
X78408Y4028D01*
X78136Y4003D01*
X78002D01*
Y9997D01*
X78136D01*
X78408Y9972D01*
X78676Y9923D01*
X78938Y9850D01*
X79193Y9753D01*
X79437Y9633D01*
X79509Y9600D01*
X79584Y9579D01*
X79663Y9571D01*
X79741Y9575D01*
X79818Y9591D01*
X79892Y9619D01*
X79960Y9658D01*
X80021Y9707D01*
X80074Y9766D01*
X80117Y9832D01*
X80149Y9904D01*
X80170Y9980D01*
X80178Y10058D01*
X80174Y10136D01*
X80158Y10213D01*
X80130Y10287D01*
X80091Y10355D01*
X80042Y10416D01*
X79983Y10469D01*
X79917Y10511D01*
X79592Y10674D01*
X79252Y10803D01*
X78902Y10901D01*
X78544Y10967D01*
X78182Y11000D01*
X78002D01*
Y97500D01*
G37*
G36*
X74716D02*X78002D01*
Y11000D01*
X77818D01*
X77456Y10967D01*
X77098Y10901D01*
X76748Y10803D01*
X76408Y10674D01*
X76081Y10515D01*
X76015Y10472D01*
X75956Y10419D01*
X75906Y10357D01*
X75867Y10288D01*
X75839Y10214D01*
X75823Y10137D01*
X75819Y10058D01*
X75827Y9979D01*
X75848Y9903D01*
X75880Y9830D01*
X75923Y9764D01*
X75976Y9705D01*
X76038Y9656D01*
X76107Y9616D01*
X76181Y9588D01*
X76258Y9572D01*
X76337Y9568D01*
X76416Y9576D01*
X76493Y9597D01*
X76564Y9630D01*
X76807Y9753D01*
X77062Y9850D01*
X77324Y9923D01*
X77592Y9972D01*
X77864Y9997D01*
X78002D01*
Y4003D01*
X77864D01*
X77592Y4028D01*
X77324Y4077D01*
X77062Y4150D01*
X76807Y4247D01*
X76563Y4367D01*
X76491Y4400D01*
X76415Y4421D01*
X76337Y4429D01*
X76259Y4425D01*
X76182Y4409D01*
X76108Y4381D01*
X76040Y4342D01*
X75979Y4293D01*
X75926Y4234D01*
X75883Y4168D01*
X75851Y4096D01*
X75830Y4020D01*
X75822Y3942D01*
X75826Y3864D01*
X75842Y3787D01*
X75870Y3713D01*
X75909Y3645D01*
X75958Y3584D01*
X76017Y3531D01*
X76083Y3489D01*
X76408Y3326D01*
X76748Y3197D01*
X77098Y3099D01*
X77456Y3033D01*
X77818Y3000D01*
X78002D01*
Y2000D01*
X74716D01*
Y4865D01*
X74786Y4839D01*
X74863Y4823D01*
X74942Y4819D01*
X75021Y4827D01*
X75097Y4848D01*
X75170Y4880D01*
X75236Y4923D01*
X75295Y4976D01*
X75344Y5038D01*
X75384Y5107D01*
X75412Y5181D01*
X75428Y5258D01*
X75432Y5337D01*
X75424Y5416D01*
X75403Y5493D01*
X75370Y5564D01*
X75247Y5807D01*
X75150Y6062D01*
X75077Y6324D01*
X75028Y6592D01*
X75003Y6864D01*
Y7136D01*
X75028Y7408D01*
X75077Y7676D01*
X75150Y7938D01*
X75247Y8193D01*
X75367Y8437D01*
X75400Y8509D01*
X75421Y8585D01*
X75429Y8663D01*
X75425Y8741D01*
X75409Y8818D01*
X75381Y8892D01*
X75342Y8960D01*
X75293Y9021D01*
X75234Y9074D01*
X75168Y9117D01*
X75096Y9149D01*
X75020Y9170D01*
X74942Y9178D01*
X74864Y9174D01*
X74787Y9158D01*
X74716Y9131D01*
Y97500D01*
G37*
G36*
X41657D02*X74716D01*
Y9131D01*
X74713Y9130D01*
X74645Y9091D01*
X74584Y9042D01*
X74531Y8983D01*
X74489Y8917D01*
X74326Y8592D01*
X74197Y8252D01*
X74099Y7902D01*
X74033Y7544D01*
X74000Y7182D01*
Y6818D01*
X74033Y6456D01*
X74099Y6098D01*
X74197Y5748D01*
X74326Y5408D01*
X74485Y5081D01*
X74528Y5015D01*
X74581Y4956D01*
X74643Y4906D01*
X74712Y4867D01*
X74716Y4865D01*
Y2000D01*
X49350D01*
X49377Y2044D01*
X49503Y2349D01*
X49581Y2670D01*
X49600Y3000D01*
X49581Y3330D01*
X49503Y3651D01*
X49377Y3956D01*
X49204Y4238D01*
X48990Y4490D01*
X48738Y4704D01*
X48456Y4877D01*
X48151Y5003D01*
X47830Y5081D01*
X47500Y5106D01*
X47170Y5081D01*
X46849Y5003D01*
X46544Y4877D01*
X46262Y4704D01*
X46010Y4490D01*
X45796Y4238D01*
X45772Y4200D01*
X41657D01*
Y48076D01*
X41679Y48077D01*
X41740Y48092D01*
X41798Y48116D01*
X41852Y48149D01*
X41900Y48190D01*
X41941Y48238D01*
X41974Y48291D01*
X41997Y48350D01*
X42049Y48531D01*
X42083Y48717D01*
X42100Y48905D01*
Y49095D01*
X42083Y49283D01*
X42049Y49469D01*
X41999Y49651D01*
X41975Y49709D01*
X41942Y49763D01*
X41901Y49811D01*
X41853Y49852D01*
X41799Y49885D01*
X41741Y49909D01*
X41679Y49924D01*
X41657Y49926D01*
Y97500D01*
G37*
G36*
X40001D02*X41657D01*
Y49926D01*
X41616Y49929D01*
X41553Y49924D01*
X41492Y49909D01*
X41433Y49885D01*
X41380Y49852D01*
X41332Y49811D01*
X41291Y49763D01*
X41258Y49709D01*
X41234Y49651D01*
X41219Y49589D01*
X41214Y49526D01*
X41219Y49463D01*
X41235Y49402D01*
X41267Y49290D01*
X41288Y49175D01*
X41299Y49058D01*
Y48942D01*
X41288Y48825D01*
X41267Y48710D01*
X41236Y48597D01*
X41220Y48537D01*
X41215Y48474D01*
X41220Y48411D01*
X41235Y48350D01*
X41259Y48292D01*
X41292Y48238D01*
X41333Y48190D01*
X41380Y48149D01*
X41434Y48116D01*
X41492Y48092D01*
X41553Y48077D01*
X41616Y48072D01*
X41657Y48076D01*
Y4200D01*
X40001D01*
Y46900D01*
X40095D01*
X40283Y46917D01*
X40469Y46951D01*
X40651Y47001D01*
X40709Y47025D01*
X40763Y47058D01*
X40811Y47099D01*
X40852Y47147D01*
X40885Y47201D01*
X40909Y47259D01*
X40924Y47321D01*
X40929Y47384D01*
X40924Y47447D01*
X40909Y47508D01*
X40885Y47567D01*
X40852Y47620D01*
X40811Y47668D01*
X40763Y47709D01*
X40709Y47742D01*
X40651Y47766D01*
X40589Y47781D01*
X40526Y47786D01*
X40463Y47781D01*
X40402Y47765D01*
X40290Y47733D01*
X40175Y47712D01*
X40058Y47701D01*
X40001D01*
Y50299D01*
X40058D01*
X40175Y50288D01*
X40290Y50267D01*
X40403Y50236D01*
X40463Y50220D01*
X40526Y50215D01*
X40589Y50220D01*
X40650Y50235D01*
X40708Y50259D01*
X40762Y50292D01*
X40810Y50333D01*
X40851Y50380D01*
X40884Y50434D01*
X40908Y50492D01*
X40923Y50553D01*
X40928Y50616D01*
X40923Y50679D01*
X40908Y50740D01*
X40884Y50798D01*
X40851Y50852D01*
X40810Y50900D01*
X40762Y50941D01*
X40709Y50974D01*
X40650Y50997D01*
X40469Y51049D01*
X40283Y51083D01*
X40095Y51100D01*
X40001D01*
Y97500D01*
G37*
G36*
X38343D02*X40001D01*
Y51100D01*
X39905D01*
X39717Y51083D01*
X39531Y51049D01*
X39349Y50999D01*
X39291Y50975D01*
X39237Y50942D01*
X39189Y50901D01*
X39148Y50853D01*
X39115Y50799D01*
X39091Y50741D01*
X39076Y50679D01*
X39071Y50616D01*
X39076Y50553D01*
X39091Y50492D01*
X39115Y50433D01*
X39148Y50380D01*
X39189Y50332D01*
X39237Y50291D01*
X39291Y50258D01*
X39349Y50234D01*
X39411Y50219D01*
X39474Y50214D01*
X39537Y50219D01*
X39598Y50235D01*
X39710Y50267D01*
X39825Y50288D01*
X39942Y50299D01*
X40001D01*
Y47701D01*
X39942D01*
X39825Y47712D01*
X39710Y47733D01*
X39597Y47764D01*
X39537Y47780D01*
X39474Y47785D01*
X39411Y47780D01*
X39350Y47765D01*
X39292Y47741D01*
X39238Y47708D01*
X39190Y47667D01*
X39149Y47620D01*
X39116Y47566D01*
X39092Y47508D01*
X39077Y47447D01*
X39072Y47384D01*
X39077Y47321D01*
X39092Y47260D01*
X39116Y47202D01*
X39149Y47148D01*
X39190Y47100D01*
X39238Y47059D01*
X39291Y47026D01*
X39350Y47003D01*
X39531Y46951D01*
X39717Y46917D01*
X39905Y46900D01*
X40001D01*
Y4200D01*
X38343D01*
Y48074D01*
X38384Y48071D01*
X38447Y48076D01*
X38508Y48091D01*
X38567Y48115D01*
X38620Y48148D01*
X38668Y48189D01*
X38709Y48237D01*
X38742Y48291D01*
X38766Y48349D01*
X38781Y48411D01*
X38786Y48474D01*
X38781Y48537D01*
X38765Y48598D01*
X38733Y48710D01*
X38712Y48825D01*
X38701Y48942D01*
Y49058D01*
X38712Y49175D01*
X38733Y49290D01*
X38764Y49403D01*
X38780Y49463D01*
X38785Y49526D01*
X38780Y49589D01*
X38765Y49650D01*
X38741Y49708D01*
X38708Y49762D01*
X38667Y49810D01*
X38620Y49851D01*
X38566Y49884D01*
X38508Y49908D01*
X38447Y49923D01*
X38384Y49928D01*
X38343Y49924D01*
Y97500D01*
G37*
G36*
X37000Y35165D02*Y36000D01*
X36197D01*
X32200Y39997D01*
Y51272D01*
X32238Y51296D01*
X32490Y51510D01*
X32704Y51762D01*
X32877Y52044D01*
X33003Y52349D01*
X33081Y52670D01*
X33100Y53000D01*
X33081Y53330D01*
X33003Y53651D01*
X32877Y53956D01*
X32704Y54238D01*
X32490Y54490D01*
X32238Y54704D01*
X31956Y54877D01*
X31651Y55003D01*
X31330Y55081D01*
X31000Y55106D01*
X30670Y55081D01*
X30349Y55003D01*
X30044Y54877D01*
X29762Y54704D01*
X29510Y54490D01*
X29296Y54238D01*
X29123Y53956D01*
X28997Y53651D01*
X28919Y53330D01*
X28894Y53000D01*
X28919Y52670D01*
X28997Y52349D01*
X29123Y52044D01*
X29296Y51762D01*
X29510Y51510D01*
X29762Y51296D01*
X29800Y51272D01*
Y51000D01*
X14780D01*
Y51259D01*
X19630Y51263D01*
X19752Y51292D01*
X19869Y51340D01*
X19976Y51406D01*
X20072Y51488D01*
X20154Y51584D01*
X20220Y51691D01*
X20268Y51808D01*
X20297Y51930D01*
X20304Y52055D01*
X20297Y61630D01*
X20268Y61752D01*
X20220Y61869D01*
X20154Y61976D01*
X20072Y62072D01*
X19976Y62154D01*
X19869Y62220D01*
X19752Y62268D01*
X19630Y62297D01*
X19504Y62304D01*
X14780Y62301D01*
Y75000D01*
X25000D01*
Y97500D01*
X38343D01*
Y49924D01*
X38321Y49923D01*
X38260Y49908D01*
X38202Y49884D01*
X38148Y49851D01*
X38100Y49810D01*
X38059Y49762D01*
X38026Y49709D01*
X38003Y49650D01*
X37951Y49469D01*
X37917Y49283D01*
X37900Y49095D01*
Y48905D01*
X37917Y48717D01*
X37951Y48531D01*
X38001Y48349D01*
X38025Y48291D01*
X38058Y48237D01*
X38099Y48189D01*
X38147Y48148D01*
X38201Y48115D01*
X38259Y48091D01*
X38321Y48076D01*
X38343Y48074D01*
Y4200D01*
X37997D01*
X37200Y4997D01*
Y34453D01*
X37204Y34500D01*
X37189Y34688D01*
X37145Y34872D01*
X37073Y35046D01*
X37000Y35165D01*
G37*
G36*
X14780Y51000D02*X2500D01*
Y75000D01*
X14780D01*
Y62301D01*
X9930Y62297D01*
X9808Y62268D01*
X9691Y62220D01*
X9584Y62154D01*
X9488Y62072D01*
X9406Y61976D01*
X9340Y61869D01*
X9292Y61752D01*
X9263Y61630D01*
X9256Y61504D01*
X9263Y51930D01*
X9292Y51808D01*
X9340Y51691D01*
X9406Y51584D01*
X9488Y51488D01*
X9584Y51406D01*
X9691Y51340D01*
X9808Y51292D01*
X9930Y51263D01*
X10056Y51255D01*
X14780Y51259D01*
Y51000D01*
G37*
G36*
X19413Y43910D02*X19428Y43845D01*
X19485Y43424D01*
X19504Y43000D01*
X19485Y42576D01*
X19428Y42155D01*
X19413Y42090D01*
Y43910D01*
G37*
G36*
Y49000D02*X28000D01*
Y34000D01*
X34800D01*
Y4547D01*
X34796Y4500D01*
X34811Y4312D01*
X34855Y4128D01*
X34927Y3954D01*
X35000Y3835D01*
Y2000D01*
X25000D01*
Y25000D01*
X19413D01*
Y39995D01*
X19525Y40160D01*
X19761Y40597D01*
X19956Y41054D01*
X20110Y41527D01*
X20221Y42011D01*
X20288Y42504D01*
X20310Y43000D01*
X20288Y43496D01*
X20221Y43989D01*
X20110Y44473D01*
X19956Y44946D01*
X19761Y45403D01*
X19525Y45840D01*
X19413Y46009D01*
Y49000D01*
G37*
G36*
X14782D02*X19413D01*
Y46009D01*
X19251Y46255D01*
X19210Y46303D01*
X19161Y46345D01*
X19107Y46378D01*
X19048Y46402D01*
X18986Y46417D01*
X18922Y46422D01*
X18859Y46417D01*
X18797Y46402D01*
X18738Y46378D01*
X18684Y46344D01*
X18636Y46303D01*
X18594Y46254D01*
X18561Y46200D01*
X18537Y46141D01*
X18522Y46079D01*
X18517Y46016D01*
X18522Y45952D01*
X18537Y45890D01*
X18561Y45831D01*
X18596Y45778D01*
X18834Y45427D01*
X19035Y45053D01*
X19202Y44663D01*
X19334Y44259D01*
X19413Y43910D01*
Y42090D01*
X19334Y41741D01*
X19202Y41337D01*
X19035Y40947D01*
X18834Y40573D01*
X18600Y40219D01*
X18566Y40166D01*
X18541Y40108D01*
X18527Y40047D01*
X18522Y39984D01*
X18527Y39922D01*
X18541Y39860D01*
X18565Y39802D01*
X18598Y39748D01*
X18639Y39700D01*
X18687Y39660D01*
X18740Y39627D01*
X18799Y39602D01*
X18860Y39588D01*
X18923Y39583D01*
X18985Y39588D01*
X19047Y39602D01*
X19105Y39626D01*
X19158Y39659D01*
X19206Y39700D01*
X19246Y39748D01*
X19413Y39995D01*
Y25000D01*
X14782D01*
Y37470D01*
X15276Y37492D01*
X15769Y37559D01*
X16253Y37670D01*
X16726Y37824D01*
X17183Y38019D01*
X17620Y38255D01*
X18035Y38529D01*
X18083Y38570D01*
X18125Y38619D01*
X18158Y38673D01*
X18182Y38732D01*
X18197Y38794D01*
X18202Y38858D01*
X18197Y38921D01*
X18182Y38983D01*
X18158Y39042D01*
X18124Y39096D01*
X18083Y39144D01*
X18034Y39186D01*
X17980Y39219D01*
X17921Y39243D01*
X17859Y39258D01*
X17796Y39263D01*
X17732Y39258D01*
X17670Y39243D01*
X17611Y39219D01*
X17558Y39184D01*
X17207Y38946D01*
X16833Y38745D01*
X16443Y38578D01*
X16039Y38446D01*
X15625Y38352D01*
X15204Y38295D01*
X14782Y38276D01*
Y47724D01*
X15204Y47705D01*
X15625Y47648D01*
X16039Y47554D01*
X16443Y47422D01*
X16833Y47255D01*
X17207Y47054D01*
X17561Y46820D01*
X17614Y46786D01*
X17672Y46761D01*
X17733Y46747D01*
X17796Y46742D01*
X17858Y46747D01*
X17920Y46761D01*
X17978Y46785D01*
X18032Y46818D01*
X18080Y46859D01*
X18120Y46907D01*
X18153Y46960D01*
X18178Y47019D01*
X18192Y47080D01*
X18197Y47143D01*
X18192Y47205D01*
X18178Y47267D01*
X18154Y47325D01*
X18121Y47378D01*
X18080Y47426D01*
X18032Y47466D01*
X17620Y47745D01*
X17183Y47981D01*
X16726Y48176D01*
X16253Y48330D01*
X15769Y48441D01*
X15276Y48508D01*
X14782Y48530D01*
Y49000D01*
G37*
G36*
X10147D02*X14782D01*
Y48530D01*
X14780Y48530D01*
X14284Y48508D01*
X13791Y48441D01*
X13307Y48330D01*
X12834Y48176D01*
X12377Y47981D01*
X11940Y47745D01*
X11525Y47471D01*
X11477Y47430D01*
X11435Y47381D01*
X11402Y47327D01*
X11378Y47268D01*
X11363Y47206D01*
X11358Y47142D01*
X11363Y47079D01*
X11378Y47017D01*
X11402Y46958D01*
X11436Y46904D01*
X11477Y46856D01*
X11526Y46814D01*
X11580Y46781D01*
X11639Y46757D01*
X11701Y46742D01*
X11764Y46737D01*
X11828Y46742D01*
X11890Y46757D01*
X11949Y46781D01*
X12002Y46816D01*
X12353Y47054D01*
X12727Y47255D01*
X13117Y47422D01*
X13521Y47554D01*
X13935Y47648D01*
X14356Y47705D01*
X14780Y47724D01*
X14782Y47724D01*
Y38276D01*
X14780Y38276D01*
X14356Y38295D01*
X13935Y38352D01*
X13521Y38446D01*
X13117Y38578D01*
X12727Y38745D01*
X12353Y38946D01*
X11999Y39180D01*
X11946Y39214D01*
X11888Y39239D01*
X11827Y39253D01*
X11764Y39258D01*
X11702Y39253D01*
X11640Y39239D01*
X11582Y39215D01*
X11528Y39182D01*
X11480Y39141D01*
X11440Y39093D01*
X11407Y39040D01*
X11382Y38981D01*
X11368Y38920D01*
X11363Y38857D01*
X11368Y38795D01*
X11382Y38733D01*
X11406Y38675D01*
X11439Y38622D01*
X11480Y38574D01*
X11528Y38534D01*
X11940Y38255D01*
X12377Y38019D01*
X12834Y37824D01*
X13307Y37670D01*
X13791Y37559D01*
X14284Y37492D01*
X14780Y37470D01*
X14782Y37470D01*
Y25000D01*
X10147D01*
Y39991D01*
X10309Y39745D01*
X10350Y39697D01*
X10399Y39655D01*
X10453Y39622D01*
X10512Y39598D01*
X10574Y39583D01*
X10638Y39578D01*
X10701Y39583D01*
X10763Y39598D01*
X10822Y39622D01*
X10876Y39656D01*
X10924Y39697D01*
X10966Y39746D01*
X10999Y39800D01*
X11023Y39859D01*
X11038Y39921D01*
X11043Y39984D01*
X11038Y40048D01*
X11023Y40110D01*
X10999Y40169D01*
X10964Y40222D01*
X10726Y40573D01*
X10525Y40947D01*
X10358Y41337D01*
X10226Y41741D01*
X10147Y42090D01*
Y43910D01*
X10226Y44259D01*
X10358Y44663D01*
X10525Y45053D01*
X10726Y45427D01*
X10960Y45781D01*
X10994Y45834D01*
X11019Y45892D01*
X11033Y45953D01*
X11038Y46016D01*
X11033Y46078D01*
X11019Y46140D01*
X10995Y46198D01*
X10962Y46252D01*
X10921Y46300D01*
X10873Y46340D01*
X10820Y46373D01*
X10761Y46398D01*
X10700Y46412D01*
X10637Y46417D01*
X10575Y46412D01*
X10513Y46398D01*
X10455Y46374D01*
X10402Y46341D01*
X10354Y46300D01*
X10314Y46252D01*
X10147Y46005D01*
Y49000D01*
G37*
G36*
Y42090D02*X10132Y42155D01*
X10075Y42576D01*
X10056Y43000D01*
X10075Y43424D01*
X10132Y43845D01*
X10147Y43910D01*
Y42090D01*
G37*
G36*
X2500Y49000D02*X10147D01*
Y46005D01*
X10035Y45840D01*
X9799Y45403D01*
X9604Y44946D01*
X9450Y44473D01*
X9339Y43989D01*
X9272Y43496D01*
X9250Y43000D01*
X9272Y42504D01*
X9339Y42011D01*
X9450Y41527D01*
X9604Y41054D01*
X9799Y40597D01*
X10035Y40160D01*
X10147Y39991D01*
Y25000D01*
X2500D01*
Y49000D01*
G37*
G54D28*X47500Y3000D02*X37500D01*
X36000Y4500D01*
Y34500D01*
X31000Y39500D01*
Y53000D01*
G54D27*G36*
X130276Y48224D02*Y38776D01*
X139724D01*
Y48224D01*
X130276D01*
G37*
G54D29*X135000Y57280D03*
X14780Y43000D03*
G54D27*G36*
X10056Y61504D02*Y52055D01*
X19504D01*
Y61504D01*
X10056D01*
G37*
G54D30*X45000Y13500D03*
X48000D03*
G54D31*X78000Y7000D03*
G54D30*X27000Y16000D03*
Y19000D03*
X39000Y19500D03*
X27000Y4000D03*
Y7000D03*
Y10000D03*
Y13000D03*
X42000Y19500D03*
X39000Y22500D03*
X42000D03*
X45000Y19500D03*
Y22500D03*
X48000D03*
Y19500D03*
X45000Y16500D03*
X48000D03*
X47500Y3000D03*
X40000Y49000D03*
X31000Y53000D03*
X69500Y46500D03*
X72500D03*
Y43500D03*
X69500D03*
Y34500D03*
X72500D03*
Y73500D03*
Y76500D03*
X75500Y34500D03*
X78500D03*
X66500D03*
X63500D03*
X72500Y37500D03*
X69500D03*
Y40500D03*
X72500D03*
X69500Y73500D03*
Y76500D03*
X71000Y79500D03*
Y82500D03*
Y85500D03*
Y88500D03*
Y91500D03*
Y94500D03*
X97000Y46000D03*
Y49000D03*
Y52000D03*
Y43000D03*
Y40000D03*
X93500D03*
Y43000D03*
Y46000D03*
Y49000D03*
Y52000D03*
G54D32*G54D33*G54D32*G54D34*G54D35*G54D34*G54D35*G54D34*G54D35*M02*
