M48
INCH
T39C0.035
T38C0.012
T37C0.047
%
T38
X004500Y001350
X004800Y001350
X002700Y001600
X002700Y001900
X003900Y001950
X002700Y000400
X002700Y000700
X002700Y001000
X002700Y001300
X004200Y001950
X003900Y002250
X004200Y002250
X004500Y001950
X004500Y002250
X004800Y002250
X004800Y001950
X004500Y001650
X004800Y001650
X004750Y000300
X004000Y004900
X003100Y005300
X006950Y004650
X007250Y004650
X007250Y004350
X006950Y004350
X006950Y003450
X007250Y003450
X007250Y007350
X007250Y007650
X007550Y003450
X007850Y003450
X006650Y003450
X006350Y003450
X007250Y003750
X006950Y003750
X006950Y004050
X007250Y004050
X006950Y007350
X006950Y007650
X007100Y007950
X007100Y008250
X007100Y008550
X007100Y008850
X007100Y009150
X007100Y009450
X009700Y004600
X009700Y004900
X009700Y005200
X009700Y004300
X009700Y004000
X009350Y004000
X009350Y004300
X009350Y004600
X009350Y004900
X009350Y005200
T39
X007800Y000700
T37
X013500Y004350
X013500Y005728
X001478Y004300
X001478Y005678
M30
